<svg xmlns="http://www.w3.org/2000/svg" viewBox="0 0 640 640">
  <defs>
    <radialGradient id="bbg" cx="50%" cy="40%" r="75%">
      <stop offset="0" stop-color="#3a281d"/><stop offset="1" stop-color="#1d1410"/>
    </radialGradient>
    <radialGradient id="bboard" cx="45%" cy="40%" r="60%">
      <stop offset="0" stop-color="#b98252"/><stop offset="1" stop-color="#8a5a33"/>
    </radialGradient>
    <filter id="bshadow" x="-20%" y="-20%" width="140%" height="140%"><feGaussianBlur stdDeviation="14"/></filter>
    <filter id="bsoft"><feGaussianBlur stdDeviation="1.2"/></filter>
  </defs>
  <rect width="640" height="640" fill="url(#bbg)"/>
  <circle cx="320" cy="325" r="300" fill="#000" opacity=".35" filter="url(#bshadow)"/>
  <circle cx="320" cy="320" r="296" fill="url(#bboard)"/>
  <circle cx="320" cy="320" r="280" fill="none" stroke="#6f4424" stroke-width="1" opacity="0.2"/><circle cx="320" cy="320" r="277" fill="none" stroke="#6f4424" stroke-width="1" opacity="0.1"/><circle cx="320" cy="320" r="274" fill="none" stroke="#6f4424" stroke-width="1" opacity="0.1"/><circle cx="320" cy="320" r="271" fill="none" stroke="#6f4424" stroke-width="1" opacity="0.2"/><circle cx="320" cy="320" r="268" fill="none" stroke="#6f4424" stroke-width="1" opacity="0.1"/><circle cx="320" cy="320" r="265" fill="none" stroke="#6f4424" stroke-width="1" opacity="0.1"/><circle cx="320" cy="320" r="262" fill="none" stroke="#6f4424" stroke-width="1" opacity="0.2"/>
  <circle cx="392.1" cy="574.2" r="2.7" fill="#fff" opacity="0.4"/><circle cx="561.3" cy="259.3" r="1.8" fill="#fff" opacity="0.4"/><circle cx="539.1" cy="85" r="1.4" fill="#fff" opacity="0.5"/><circle cx="-14.8" cy="420.3" r="2.7" fill="#fff" opacity="0.4"/><circle cx="241.9" cy="549.6" r="2.7" fill="#fff" opacity="0.3"/><circle cx="572" cy="253.6" r="1.1" fill="#fff" opacity="0.3"/><circle cx="87.4" cy="436.5" r="1.3" fill="#fff" opacity="0.5"/><circle cx="25.7" cy="349.5" r="1.4" fill="#fff" opacity="0.2"/><circle cx="253.7" cy="642.3" r="1.8" fill="#fff" opacity="0.2"/><circle cx="558.6" cy="153.9" r="3" fill="#fff" opacity="0.5"/><circle cx="511.2" cy="68.8" r="2.8" fill="#fff" opacity="0.4"/><circle cx="190.2" cy="18.6" r="2.2" fill="#fff" opacity="0.3"/><circle cx="416" cy="610.9" r="1.1" fill="#fff" opacity="0.5"/><circle cx="640.9" cy="182.4" r="1.6" fill="#fff" opacity="0.2"/><circle cx="524.8" cy="176.1" r="1.4" fill="#fff" opacity="0.4"/><circle cx="317.3" cy="-12.4" r="2.1" fill="#fff" opacity="0.2"/><circle cx="455.7" cy="72.6" r="2.3" fill="#fff" opacity="0.3"/><circle cx="500.6" cy="139.3" r="2.8" fill="#fff" opacity="0.3"/><circle cx="396.7" cy="576" r="3" fill="#fff" opacity="0.2"/><circle cx="229.1" cy="47.2" r="1" fill="#fff" opacity="0.2"/><circle cx="568.4" cy="299.5" r="1" fill="#fff" opacity="0.4"/><circle cx="8" cy="261.1" r="2" fill="#fff" opacity="0.3"/><circle cx="16.9" cy="152.9" r="1.1" fill="#fff" opacity="0.4"/><circle cx="394.8" cy="581.7" r="1.1" fill="#fff" opacity="0.2"/><circle cx="475.3" cy="45" r="1" fill="#fff" opacity="0.2"/><circle cx="649.8" cy="339.9" r="1.1" fill="#fff" opacity="0.4"/><circle cx="161" cy="512.4" r="1.3" fill="#fff" opacity="0.4"/><circle cx="517.8" cy="171.1" r="2.3" fill="#fff" opacity="0.4"/><circle cx="421.7" cy="564.2" r="1.5" fill="#fff" opacity="0.3"/><circle cx="568.1" cy="381.9" r="1.6" fill="#fff" opacity="0.3"/><circle cx="201" cy="29.1" r="2.7" fill="#fff" opacity="0.2"/><circle cx="184" cy="64.5" r="1.6" fill="#fff" opacity="0.3"/><circle cx="520.8" cy="40.9" r="2.7" fill="#fff" opacity="0.5"/><circle cx="280.4" cy="658" r="2" fill="#fff" opacity="0.5"/><circle cx="501.9" cy="34.9" r="2.1" fill="#fff" opacity="0.4"/><circle cx="577" cy="339.1" r="1.5" fill="#fff" opacity="0.4"/><circle cx="536.3" cy="163.6" r="1.2" fill="#fff" opacity="0.2"/><circle cx="31.8" cy="140.2" r="1.6" fill="#fff" opacity="0.3"/><circle cx="66.6" cy="265.2" r="2.5" fill="#fff" opacity="0.5"/><circle cx="252.3" cy="563.3" r="1" fill="#fff" opacity="0.4"/><circle cx="655.2" cy="365.5" r="2.8" fill="#fff" opacity="0.4"/><circle cx="32.3" cy="430.7" r="2.8" fill="#fff" opacity="0.4"/><circle cx="334.8" cy="594" r="1.4" fill="#fff" opacity="0.2"/><circle cx="549" cy="489.6" r="1.7" fill="#fff" opacity="0.2"/><circle cx="435.1" cy="-1.2" r="2.2" fill="#fff" opacity="0.4"/><circle cx="501.7" cy="521.1" r="1.2" fill="#fff" opacity="0.2"/><circle cx="33.1" cy="315.2" r="1.6" fill="#fff" opacity="0.4"/><circle cx="46.2" cy="245.8" r="2.6" fill="#fff" opacity="0.3"/><circle cx="620.8" cy="452.2" r="2.6" fill="#fff" opacity="0.2"/><circle cx="527.6" cy="592.4" r="1" fill="#fff" opacity="0.3"/><circle cx="339.6" cy="568.3" r="2" fill="#fff" opacity="0.3"/><circle cx="12" cy="211.9" r="2.4" fill="#fff" opacity="0.4"/><circle cx="482.3" cy="564.9" r="1.7" fill="#fff" opacity="0.5"/><circle cx="46.7" cy="402" r="1.4" fill="#fff" opacity="0.4"/><circle cx="582.9" cy="420.1" r="1.5" fill="#fff" opacity="0.3"/><circle cx="377.7" cy="625.3" r="1.3" fill="#fff" opacity="0.4"/><circle cx="269.1" cy="605.5" r="2.8" fill="#fff" opacity="0.3"/><circle cx="463.4" cy="54.8" r="2.6" fill="#fff" opacity="0.3"/><circle cx="20.4" cy="152.8" r="0.9" fill="#fff" opacity="0.5"/><circle cx="576.4" cy="469.3" r="2.2" fill="#fff" opacity="0.2"/>
  
  <defs>
    <radialGradient id="p97crust" cx="50%" cy="45%" r="55%">
      <stop offset=".78" stop-color="#e7b36f"/><stop offset=".9" stop-color="#d49549"/><stop offset="1" stop-color="#a86a2c"/>
    </radialGradient>
    <radialGradient id="p97cheese" cx="45%" cy="40%" r="60%">
      <stop offset="0" stop-color="#fbe3a0"/><stop offset=".7" stop-color="#f3cb6c"/><stop offset="1" stop-color="#e7ad4a"/>
    </radialGradient>
    <radialGradient id="p97choc" cx="45%" cy="40%" r="60%">
      <stop offset="0" stop-color="#6d4331"/><stop offset="1" stop-color="#3e2418"/>
    </radialGradient>
    <radialGradient id="p97sauce" cx="45%" cy="40%" r="60%">
      <stop offset="0" stop-color="#d9442f"/><stop offset="1" stop-color="#a92a1b"/>
    </radialGradient>
  </defs>
  <ellipse cx="330" cy="345" rx="262" ry="258" fill="#000" opacity=".45" filter="url(#bshadow)"/>
  <circle cx="320" cy="320" r="252" fill="url(#p97crust)"/><ellipse cx="286.8" cy="541.5" rx="4.9" ry="3.3" fill="#5a2e12" opacity="0.3" transform="rotate(98.5 286.8 541.5)"/><ellipse cx="453.1" cy="502.6" rx="7.1" ry="6.3" fill="#5a2e12" opacity="0.3" transform="rotate(53.9 453.1 502.6)"/><ellipse cx="400.8" cy="108.6" rx="6" ry="3.1" fill="#5a2e12" opacity="0.3" transform="rotate(290.9 400.8 108.6)"/><ellipse cx="284.4" cy="86" rx="9.3" ry="3.7" fill="#5a2e12" opacity="0.5" transform="rotate(261.4 284.4 86)"/><ellipse cx="110.5" cy="236.6" rx="6.3" ry="3" fill="#5a2e12" opacity="0.4" transform="rotate(201.7 110.5 236.6)"/><ellipse cx="483" cy="475.2" rx="3.1" ry="2" fill="#5a2e12" opacity="0.3" transform="rotate(43.6 483 475.2)"/><ellipse cx="199.3" cy="508.5" rx="9.5" ry="3" fill="#5a2e12" opacity="0.5" transform="rotate(122.6 199.3 508.5)"/><ellipse cx="482.2" cy="497.1" rx="10.3" ry="2.6" fill="#5a2e12" opacity="0.6" transform="rotate(47.5 482.2 497.1)"/><ellipse cx="279.6" cy="548.3" rx="10" ry="6" fill="#5a2e12" opacity="0.5" transform="rotate(100 279.6 548.3)"/><ellipse cx="529.7" cy="431.9" rx="6.2" ry="2.9" fill="#5a2e12" opacity="0.6" transform="rotate(28.1 529.7 431.9)"/><ellipse cx="383.7" cy="92.1" rx="9.3" ry="3.3" fill="#5a2e12" opacity="0.7" transform="rotate(285.6 383.7 92.1)"/><ellipse cx="97" cy="325.8" rx="4.9" ry="5.4" fill="#5a2e12" opacity="0.3" transform="rotate(178.5 97 325.8)"/><ellipse cx="516.7" cy="214.7" rx="3.8" ry="4.6" fill="#5a2e12" opacity="0.7" transform="rotate(331.8 516.7 214.7)"/><ellipse cx="491" cy="491.4" rx="3.4" ry="3.3" fill="#5a2e12" opacity="0.3" transform="rotate(45.1 491 491.4)"/><ellipse cx="353.8" cy="561.4" rx="7" ry="6.2" fill="#5a2e12" opacity="0.3" transform="rotate(82 353.8 561.4)"/><ellipse cx="431" cy="125.4" rx="5" ry="5.3" fill="#5a2e12" opacity="0.4" transform="rotate(299.7 431 125.4)"/><ellipse cx="385.3" cy="103.4" rx="7.9" ry="4.2" fill="#5a2e12" opacity="0.6" transform="rotate(286.8 385.3 103.4)"/><ellipse cx="536.2" cy="201.1" rx="3.5" ry="2.1" fill="#5a2e12" opacity="0.3" transform="rotate(331.2 536.2 201.1)"/><ellipse cx="542.5" cy="278.1" rx="6.6" ry="6" fill="#5a2e12" opacity="0.5" transform="rotate(349.3 542.5 278.1)"/><ellipse cx="484.8" cy="167" rx="3.5" ry="5.8" fill="#5a2e12" opacity="0.7" transform="rotate(317.1 484.8 167)"/><ellipse cx="566.4" cy="318.1" rx="6.4" ry="5.7" fill="#5a2e12" opacity="0.6" transform="rotate(359.6 566.4 318.1)"/><ellipse cx="432.9" cy="519.7" rx="9" ry="5.5" fill="#5a2e12" opacity="0.5" transform="rotate(60.5 432.9 519.7)"/><ellipse cx="167" cy="513" rx="5.7" ry="6.4" fill="#5a2e12" opacity="0.6" transform="rotate(128.4 167 513)"/><ellipse cx="94.7" cy="341" rx="4" ry="2.8" fill="#5a2e12" opacity="0.4" transform="rotate(174.7 94.7 341)"/><ellipse cx="78" cy="335.4" rx="10.2" ry="4" fill="#5a2e12" opacity="0.3" transform="rotate(176.4 78 335.4)"/><ellipse cx="100" cy="223.4" rx="7.4" ry="3.3" fill="#5a2e12" opacity="0.6" transform="rotate(203.7 100 223.4)"/><ellipse cx="558.8" cy="292.3" rx="3.6" ry="6" fill="#5a2e12" opacity="0.5" transform="rotate(353.4 558.8 292.3)"/><ellipse cx="540.8" cy="216.8" rx="3.3" ry="6.6" fill="#5a2e12" opacity="0.6" transform="rotate(334.9 540.8 216.8)"/><ellipse cx="508.9" cy="184.8" rx="4.3" ry="2.6" fill="#5a2e12" opacity="0.4" transform="rotate(324.4 508.9 184.8)"/><ellipse cx="345.3" cy="80.6" rx="3.6" ry="2.4" fill="#5a2e12" opacity="0.6" transform="rotate(276 345.3 80.6)"/><ellipse cx="364.7" cy="547" rx="8.4" ry="2.2" fill="#5a2e12" opacity="0.5" transform="rotate(78.9 364.7 547)"/><ellipse cx="101.1" cy="415.8" rx="10.3" ry="6.9" fill="#5a2e12" opacity="0.6" transform="rotate(156.4 101.1 415.8)"/><ellipse cx="544" cy="263.2" rx="8.4" ry="5.3" fill="#5a2e12" opacity="0.4" transform="rotate(345.8 544 263.2)"/><ellipse cx="393.9" cy="550.9" rx="4.9" ry="6.6" fill="#5a2e12" opacity="0.3" transform="rotate(72.3 393.9 550.9)"/><ellipse cx="548.4" cy="361" rx="6.5" ry="7" fill="#5a2e12" opacity="0.7" transform="rotate(10.2 548.4 361)"/><ellipse cx="318.5" cy="564.6" rx="3.3" ry="6.6" fill="#5a2e12" opacity="0.6" transform="rotate(90.3 318.5 564.6)"/><ellipse cx="225.8" cy="112.8" rx="8.8" ry="3.4" fill="#5a2e12" opacity="0.7" transform="rotate(245.6 225.8 112.8)"/><ellipse cx="422.3" cy="115.4" rx="8.1" ry="3.4" fill="#5a2e12" opacity="0.5" transform="rotate(296.6 422.3 115.4)"/><ellipse cx="227.4" cy="547.1" rx="5.9" ry="5.4" fill="#5a2e12" opacity="0.6" transform="rotate(112.2 227.4 547.1)"/><ellipse cx="529.7" cy="446.3" rx="5.9" ry="5.2" fill="#5a2e12" opacity="0.6" transform="rotate(31.1 529.7 446.3)"/><ellipse cx="262.9" cy="103.5" rx="9.2" ry="3.5" fill="#5a2e12" opacity="0.4" transform="rotate(255.2 262.9 103.5)"/><ellipse cx="479.5" cy="483.3" rx="8.9" ry="5.2" fill="#5a2e12" opacity="0.5" transform="rotate(45.7 479.5 483.3)"/><circle cx="320" cy="320" r="252" fill="none" stroke="#f3d29c" stroke-width="3" opacity=".35"/><circle cx="320" cy="320" r="216" fill="url(#p97sauce)"/><circle cx="320" cy="320" r="200" fill="url(#p97cheese)"/><circle cx="207.1" cy="496.9" r="27.3" fill="#f1c461"/><circle cx="510.5" cy="315.5" r="24.9" fill="#f1c461"/><circle cx="134.2" cy="292.2" r="20.8" fill="#f1c461"/><circle cx="516.1" cy="312.6" r="26.5" fill="#f1c461"/><circle cx="520.4" cy="367.5" r="16.3" fill="#f1c461"/><circle cx="523.1" cy="295.8" r="19.9" fill="#f1c461"/><circle cx="510.7" cy="336.3" r="14.2" fill="#f1c461"/><circle cx="113.2" cy="330.4" r="23" fill="#f1c461"/><circle cx="123.7" cy="308.8" r="15.1" fill="#f1c461"/><circle cx="346.2" cy="118.2" r="26" fill="#f1c461"/><circle cx="476.7" cy="208" r="23.8" fill="#f1c461"/><circle cx="300.4" cy="119.4" r="16.1" fill="#f1c461"/><circle cx="333.7" cy="528.4" r="14.4" fill="#f1c461"/><circle cx="456.3" cy="161.5" r="15.7" fill="#f1c461"/><circle cx="524.1" cy="273.6" r="27.6" fill="#f1c461"/><circle cx="183.7" cy="170.9" r="14.5" fill="#f1c461"/><circle cx="438.2" cy="470.8" r="18.1" fill="#f1c461"/><circle cx="161.7" cy="196.4" r="14.8" fill="#f1c461"/><circle cx="386.4" cy="507" r="25.1" fill="#f1c461"/><circle cx="153.2" cy="225" r="16.3" fill="#f1c461"/><circle cx="347.3" cy="117.9" r="20.8" fill="#f1c461"/><circle cx="198.5" cy="473" r="25.7" fill="#f1c461"/><circle cx="145.6" cy="414.9" r="17.2" fill="#f1c461"/><circle cx="342.1" cy="527.5" r="14.7" fill="#f1c461"/><circle cx="154.9" cy="222.1" r="27.3" fill="#f1c461"/><circle cx="126.9" cy="296" r="15.8" fill="#f1c461"/><ellipse cx="329.8" cy="252.5" rx="24.8" ry="10.3" fill="#fff1c4" opacity="0.7"/><ellipse cx="391.7" cy="278.2" rx="27.7" ry="11.7" fill="#fff1c4" opacity="0.5"/><ellipse cx="182.4" cy="448.6" rx="8.2" ry="15.7" fill="#fff1c4" opacity="0.4"/><ellipse cx="150.6" cy="311.8" rx="26.4" ry="13.4" fill="#fff1c4" opacity="0.5"/><ellipse cx="236.9" cy="171.2" rx="20.2" ry="11.6" fill="#fff1c4" opacity="0.7"/><ellipse cx="259.4" cy="203.9" rx="15.6" ry="16.4" fill="#fff1c4" opacity="0.5"/><ellipse cx="375" cy="313.4" rx="26" ry="7" fill="#fff1c4" opacity="0.6"/><ellipse cx="245.2" cy="280.3" rx="17.1" ry="10" fill="#fff1c4" opacity="0.4"/><ellipse cx="254.8" cy="250.7" rx="12.9" ry="13.7" fill="#fff1c4" opacity="0.6"/><ellipse cx="147.3" cy="352.9" rx="9" ry="16" fill="#fff1c4" opacity="0.7"/><ellipse cx="416.4" cy="413.9" rx="21.4" ry="10.1" fill="#fff1c4" opacity="0.6"/><ellipse cx="427.6" cy="219.7" rx="22.8" ry="17.3" fill="#fff1c4" opacity="0.7"/><ellipse cx="147.3" cy="316.4" rx="26.8" ry="7.7" fill="#fff1c4" opacity="0.4"/><ellipse cx="356.1" cy="490" rx="26.9" ry="16.3" fill="#fff1c4" opacity="0.4"/><ellipse cx="242.5" cy="221.1" rx="21" ry="13.1" fill="#fff1c4" opacity="0.6"/><ellipse cx="400.8" cy="481.2" rx="11.8" ry="15" fill="#fff1c4" opacity="0.4"/><ellipse cx="374.9" cy="421.5" rx="17.5" ry="13.2" fill="#fff1c4" opacity="0.6"/><ellipse cx="250.1" cy="493.6" rx="10" ry="15.6" fill="#fff1c4" opacity="0.5"/><ellipse cx="228.7" cy="310.3" rx="27.3" ry="7.9" fill="#fff1c4" opacity="0.7"/><ellipse cx="402.2" cy="154.3" rx="15.5" ry="14.4" fill="#fff1c4" opacity="0.6"/><ellipse cx="311.6" cy="262" rx="21.7" ry="14.6" fill="#fff1c4" opacity="0.6"/><ellipse cx="275.5" cy="467.7" rx="24.9" ry="15.4" fill="#fff1c4" opacity="0.5"/><ellipse cx="416.1" cy="187.5" rx="26.9" ry="11.3" fill="#fff1c4" opacity="0.7"/><ellipse cx="366.9" cy="375.8" rx="20.9" ry="12.6" fill="#fff1c4" opacity="0.4"/><ellipse cx="246.4" cy="397" rx="26.2" ry="18" fill="#fff1c4" opacity="0.6"/><ellipse cx="467" cy="420.6" rx="19.2" ry="14" fill="#fff1c4" opacity="0.7"/><ellipse cx="497.9" cy="344.1" rx="15.8" ry="12.7" fill="#fff1c4" opacity="0.7"/><ellipse cx="394.6" cy="191.4" rx="11.2" ry="7.9" fill="#fff1c4" opacity="0.6"/><ellipse cx="266.4" cy="236.2" rx="22.4" ry="8.9" fill="#fff1c4" opacity="0.7"/><ellipse cx="234.8" cy="392.3" rx="22.7" ry="9.5" fill="#fff1c4" opacity="0.4"/><ellipse cx="288.1" cy="204.4" rx="12.7" ry="17.1" fill="#fff1c4" opacity="0.4"/><ellipse cx="304.7" cy="189" rx="19.8" ry="11.6" fill="#fff1c4" opacity="0.6"/><ellipse cx="480.4" cy="319.9" rx="14.8" ry="8.6" fill="#fff1c4" opacity="0.5"/><ellipse cx="496.6" cy="287.6" rx="11" ry="17.1" fill="#fff1c4" opacity="0.4"/><ellipse cx="391.2" cy="164.9" rx="12.2" ry="6.4" fill="#fff1c4" opacity="0.5"/><ellipse cx="336.6" cy="422.3" rx="9.9" ry="11.3" fill="#fff1c4" opacity="0.4"/><ellipse cx="139.4" cy="274.6" rx="20.7" ry="14.1" fill="#fff1c4" opacity="0.5"/><ellipse cx="343.6" cy="364.5" rx="18.9" ry="10.8" fill="#fff1c4" opacity="0.7"/><ellipse cx="238" cy="243.9" rx="14" ry="7.8" fill="#fff1c4" opacity="0.7"/><ellipse cx="393.8" cy="443.9" rx="16.4" ry="17.1" fill="#fff1c4" opacity="0.5"/><circle cx="393" cy="176.4" r="5.7" fill="#c9802c" opacity="0.7"/><circle cx="167.6" cy="371.8" r="3.4" fill="#c9802c" opacity="0.4"/><circle cx="502.8" cy="391.3" r="5.2" fill="#c9802c" opacity="0.5"/><circle cx="277.5" cy="472.4" r="4.8" fill="#c9802c" opacity="0.4"/><circle cx="396.2" cy="310.4" r="3.8" fill="#c9802c" opacity="0.4"/><circle cx="413.3" cy="239.9" r="6.7" fill="#c9802c" opacity="0.6"/><circle cx="245.6" cy="328.6" r="5.8" fill="#c9802c" opacity="0.5"/><circle cx="167.6" cy="407" r="4.5" fill="#c9802c" opacity="0.6"/><circle cx="256.2" cy="136.1" r="6.5" fill="#c9802c" opacity="0.5"/><circle cx="289.1" cy="185.1" r="3.5" fill="#c9802c" opacity="0.4"/><circle cx="191.6" cy="180.8" r="6" fill="#c9802c" opacity="0.4"/><circle cx="328.9" cy="285.4" r="3.6" fill="#c9802c" opacity="0.5"/><circle cx="468.6" cy="446.7" r="3.6" fill="#c9802c" opacity="0.4"/><circle cx="255.4" cy="142" r="7" fill="#c9802c" opacity="0.6"/><circle cx="379.5" cy="338" r="3.2" fill="#c9802c" opacity="0.7"/><circle cx="251.3" cy="175.3" r="5.9" fill="#c9802c" opacity="0.6"/><circle cx="494.1" cy="313.6" r="5.5" fill="#c9802c" opacity="0.4"/><circle cx="285" cy="249" r="6.6" fill="#c9802c" opacity="0.6"/><circle cx="428.3" cy="356.7" r="5.6" fill="#c9802c" opacity="0.4"/><circle cx="481.6" cy="426.5" r="2.7" fill="#c9802c" opacity="0.5"/><circle cx="479.4" cy="374.1" r="6.3" fill="#c9802c" opacity="0.4"/><circle cx="428.5" cy="247.4" r="2.7" fill="#c9802c" opacity="0.4"/><circle cx="496.7" cy="403.9" r="7.6" fill="#c9802c" opacity="0.6"/><circle cx="430.8" cy="389.6" r="7.6" fill="#c9802c" opacity="0.4"/><circle cx="319.2" cy="516" r="6.4" fill="#c9802c" opacity="0.6"/><circle cx="243.8" cy="451.2" r="5.6" fill="#c9802c" opacity="0.5"/><circle cx="402" cy="285.6" r="6.6" fill="#c9802c" opacity="0.4"/><circle cx="475.4" cy="421.9" r="7.8" fill="#c9802c" opacity="0.5"/><circle cx="426.6" cy="422.8" r="5.5" fill="#c9802c" opacity="0.4"/><circle cx="410" cy="279.4" r="4.6" fill="#c9802c" opacity="0.4"/><circle cx="341.4" cy="400" r="7.5" fill="#c9802c" opacity="0.7"/><circle cx="351.6" cy="422.2" r="4.8" fill="#c9802c" opacity="0.4"/><circle cx="437.6" cy="383" r="7.8" fill="#c9802c" opacity="0.5"/><circle cx="509.1" cy="330.2" r="2.3" fill="#c9802c" opacity="0.6"/><rect x="143.2" y="330.9" width="22" height="6" rx="3" fill="#e9cc9c" stroke="#c9a06a" stroke-width="1.2" transform="rotate(74.5 154.2 333.9)"/><rect x="127.8" y="331.7" width="22" height="6" rx="3" fill="#e9cc9c" stroke="#c9a06a" stroke-width="1.2" transform="rotate(21.7 138.8 334.7)"/><rect x="134.5" y="347.5" width="22" height="6" rx="3" fill="#e9cc9c" stroke="#c9a06a" stroke-width="1.2" transform="rotate(63.8 145.5 350.5)"/><rect x="132.2" y="342.5" width="22" height="6" rx="3" fill="#e9cc9c" stroke="#c9a06a" stroke-width="1.2" transform="rotate(178.6 143.2 345.5)"/><rect x="199.1" y="472.9" width="22" height="6" rx="3" fill="#e9cc9c" stroke="#c9a06a" stroke-width="1.2" transform="rotate(32.9 210.1 475.9)"/><rect x="208.3" y="458.5" width="22" height="6" rx="3" fill="#e9cc9c" stroke="#c9a06a" stroke-width="1.2" transform="rotate(126.9 219.3 461.5)"/><rect x="197.8" y="459.6" width="22" height="6" rx="3" fill="#e9cc9c" stroke="#c9a06a" stroke-width="1.2" transform="rotate(60.4 208.8 462.6)"/><rect x="213.8" y="454.5" width="22" height="6" rx="3" fill="#e9cc9c" stroke="#c9a06a" stroke-width="1.2" transform="rotate(151.1 224.8 457.5)"/><rect x="241" y="309.7" width="22" height="6" rx="3" fill="#e9cc9c" stroke="#c9a06a" stroke-width="1.2" transform="rotate(105.1 252 312.7)"/><rect x="247.5" y="308.5" width="22" height="6" rx="3" fill="#e9cc9c" stroke="#c9a06a" stroke-width="1.2" transform="rotate(9.1 258.5 311.5)"/><rect x="256.3" y="324.9" width="22" height="6" rx="3" fill="#e9cc9c" stroke="#c9a06a" stroke-width="1.2" transform="rotate(162 267.3 327.9)"/><rect x="246.3" y="324.7" width="22" height="6" rx="3" fill="#e9cc9c" stroke="#c9a06a" stroke-width="1.2" transform="rotate(23.8 257.3 327.7)"/><rect x="344" y="204" width="22" height="6" rx="3" fill="#e9cc9c" stroke="#c9a06a" stroke-width="1.2" transform="rotate(161.3 355 207)"/><rect x="337.2" y="205.7" width="22" height="6" rx="3" fill="#e9cc9c" stroke="#c9a06a" stroke-width="1.2" transform="rotate(38 348.2 208.7)"/><rect x="351.7" y="216.7" width="22" height="6" rx="3" fill="#e9cc9c" stroke="#c9a06a" stroke-width="1.2" transform="rotate(37.1 362.7 219.7)"/><rect x="351.4" y="207.7" width="22" height="6" rx="3" fill="#e9cc9c" stroke="#c9a06a" stroke-width="1.2" transform="rotate(73.8 362.4 210.7)"/><rect x="292.3" y="177.2" width="22" height="6" rx="3" fill="#e9cc9c" stroke="#c9a06a" stroke-width="1.2" transform="rotate(166.7 303.3 180.2)"/><rect x="277.4" y="165" width="22" height="6" rx="3" fill="#e9cc9c" stroke="#c9a06a" stroke-width="1.2" transform="rotate(28.7 288.4 168)"/><rect x="277.2" y="171.1" width="22" height="6" rx="3" fill="#e9cc9c" stroke="#c9a06a" stroke-width="1.2" transform="rotate(167.5 288.2 174.1)"/><rect x="286.1" y="168.9" width="22" height="6" rx="3" fill="#e9cc9c" stroke="#c9a06a" stroke-width="1.2" transform="rotate(52.6 297.1 171.9)"/><rect x="427.9" y="341.9" width="22" height="6" rx="3" fill="#e9cc9c" stroke="#c9a06a" stroke-width="1.2" transform="rotate(68.2 438.9 344.9)"/><rect x="410.8" y="334.1" width="22" height="6" rx="3" fill="#e9cc9c" stroke="#c9a06a" stroke-width="1.2" transform="rotate(59.8 421.8 337.1)"/><rect x="429.1" y="327.9" width="22" height="6" rx="3" fill="#e9cc9c" stroke="#c9a06a" stroke-width="1.2" transform="rotate(50.2 440.1 330.9)"/><rect x="417.5" y="345" width="22" height="6" rx="3" fill="#e9cc9c" stroke="#c9a06a" stroke-width="1.2" transform="rotate(69.5 428.5 348)"/><rect x="138.6" y="307.7" width="22" height="6" rx="3" fill="#e9cc9c" stroke="#c9a06a" stroke-width="1.2" transform="rotate(80.1 149.6 310.7)"/><rect x="141.8" y="306.9" width="22" height="6" rx="3" fill="#e9cc9c" stroke="#c9a06a" stroke-width="1.2" transform="rotate(179.6 152.8 309.9)"/><rect x="128" y="313.1" width="22" height="6" rx="3" fill="#e9cc9c" stroke="#c9a06a" stroke-width="1.2" transform="rotate(156.7 139 316.1)"/><rect x="149.8" y="316.3" width="22" height="6" rx="3" fill="#e9cc9c" stroke="#c9a06a" stroke-width="1.2" transform="rotate(112.3 160.8 319.3)"/><rect x="463.6" y="344.6" width="22" height="6" rx="3" fill="#e9cc9c" stroke="#c9a06a" stroke-width="1.2" transform="rotate(40.6 474.6 347.6)"/><rect x="475.4" y="341.6" width="22" height="6" rx="3" fill="#e9cc9c" stroke="#c9a06a" stroke-width="1.2" transform="rotate(43.4 486.4 344.6)"/><rect x="473.9" y="345.2" width="22" height="6" rx="3" fill="#e9cc9c" stroke="#c9a06a" stroke-width="1.2" transform="rotate(41.6 484.9 348.2)"/><rect x="477" y="330.6" width="22" height="6" rx="3" fill="#e9cc9c" stroke="#c9a06a" stroke-width="1.2" transform="rotate(84.8 488 333.6)"/><rect x="416" y="231.7" width="22" height="6" rx="3" fill="#e9cc9c" stroke="#c9a06a" stroke-width="1.2" transform="rotate(153 427 234.7)"/><rect x="419.7" y="247.7" width="22" height="6" rx="3" fill="#e9cc9c" stroke="#c9a06a" stroke-width="1.2" transform="rotate(110.4 430.7 250.7)"/><rect x="417.2" y="230.8" width="22" height="6" rx="3" fill="#e9cc9c" stroke="#c9a06a" stroke-width="1.2" transform="rotate(156.9 428.2 233.8)"/><rect x="408.1" y="236.8" width="22" height="6" rx="3" fill="#e9cc9c" stroke="#c9a06a" stroke-width="1.2" transform="rotate(117.9 419.1 239.8)"/><rect x="264.1" y="360.8" width="22" height="6" rx="3" fill="#e9cc9c" stroke="#c9a06a" stroke-width="1.2" transform="rotate(70.6 275.1 363.8)"/><rect x="244.6" y="348.2" width="22" height="6" rx="3" fill="#e9cc9c" stroke="#c9a06a" stroke-width="1.2" transform="rotate(134 255.6 351.2)"/><rect x="263.3" y="353.6" width="22" height="6" rx="3" fill="#e9cc9c" stroke="#c9a06a" stroke-width="1.2" transform="rotate(35.4 274.3 356.6)"/><rect x="258.2" y="367.3" width="22" height="6" rx="3" fill="#e9cc9c" stroke="#c9a06a" stroke-width="1.2" transform="rotate(64.4 269.2 370.3)"/><ellipse cx="463.1" cy="265.8" rx="5.5" ry="4.5" fill="#f7c540" stroke="#d99a1e" stroke-width="1.4"/><ellipse cx="468.3" cy="264.9" rx="5.5" ry="4.5" fill="#f7c540" stroke="#d99a1e" stroke-width="1.4"/><ellipse cx="465.1" cy="276.2" rx="5.5" ry="4.5" fill="#f7c540" stroke="#d99a1e" stroke-width="1.4"/><ellipse cx="199.2" cy="327.8" rx="5.5" ry="4.5" fill="#f7c540" stroke="#d99a1e" stroke-width="1.4"/><ellipse cx="208.9" cy="320.1" rx="5.5" ry="4.5" fill="#f7c540" stroke="#d99a1e" stroke-width="1.4"/><ellipse cx="198.5" cy="328.9" rx="5.5" ry="4.5" fill="#f7c540" stroke="#d99a1e" stroke-width="1.4"/><ellipse cx="308.2" cy="342.4" rx="5.5" ry="4.5" fill="#f7c540" stroke="#d99a1e" stroke-width="1.4"/><ellipse cx="307.7" cy="348.7" rx="5.5" ry="4.5" fill="#f7c540" stroke="#d99a1e" stroke-width="1.4"/><ellipse cx="316.1" cy="354.8" rx="5.5" ry="4.5" fill="#f7c540" stroke="#d99a1e" stroke-width="1.4"/><ellipse cx="263.4" cy="222.8" rx="5.5" ry="4.5" fill="#f7c540" stroke="#d99a1e" stroke-width="1.4"/><ellipse cx="256.3" cy="209" rx="5.5" ry="4.5" fill="#f7c540" stroke="#d99a1e" stroke-width="1.4"/><ellipse cx="267.4" cy="210.3" rx="5.5" ry="4.5" fill="#f7c540" stroke="#d99a1e" stroke-width="1.4"/><ellipse cx="408.3" cy="308.8" rx="5.5" ry="4.5" fill="#f7c540" stroke="#d99a1e" stroke-width="1.4"/><ellipse cx="404.4" cy="320.7" rx="5.5" ry="4.5" fill="#f7c540" stroke="#d99a1e" stroke-width="1.4"/><ellipse cx="404.1" cy="319.6" rx="5.5" ry="4.5" fill="#f7c540" stroke="#d99a1e" stroke-width="1.4"/><ellipse cx="239.3" cy="399.1" rx="5.5" ry="4.5" fill="#f7c540" stroke="#d99a1e" stroke-width="1.4"/><ellipse cx="233.5" cy="393.8" rx="5.5" ry="4.5" fill="#f7c540" stroke="#d99a1e" stroke-width="1.4"/><ellipse cx="232.9" cy="402.7" rx="5.5" ry="4.5" fill="#f7c540" stroke="#d99a1e" stroke-width="1.4"/><ellipse cx="263.3" cy="430.9" rx="5.5" ry="4.5" fill="#f7c540" stroke="#d99a1e" stroke-width="1.4"/><ellipse cx="263.8" cy="428.6" rx="5.5" ry="4.5" fill="#f7c540" stroke="#d99a1e" stroke-width="1.4"/><ellipse cx="272.1" cy="432.8" rx="5.5" ry="4.5" fill="#f7c540" stroke="#d99a1e" stroke-width="1.4"/><ellipse cx="403.4" cy="275" rx="5.5" ry="4.5" fill="#f7c540" stroke="#d99a1e" stroke-width="1.4"/><ellipse cx="391.5" cy="271.7" rx="5.5" ry="4.5" fill="#f7c540" stroke="#d99a1e" stroke-width="1.4"/><ellipse cx="405.7" cy="272.1" rx="5.5" ry="4.5" fill="#f7c540" stroke="#d99a1e" stroke-width="1.4"/><ellipse cx="471.7" cy="311.4" rx="5.5" ry="4.5" fill="#f7c540" stroke="#d99a1e" stroke-width="1.4"/><ellipse cx="472.5" cy="310.7" rx="5.5" ry="4.5" fill="#f7c540" stroke="#d99a1e" stroke-width="1.4"/><ellipse cx="463.7" cy="295.7" rx="5.5" ry="4.5" fill="#f7c540" stroke="#d99a1e" stroke-width="1.4"/><ellipse cx="269.3" cy="396.5" rx="5.5" ry="4.5" fill="#f7c540" stroke="#d99a1e" stroke-width="1.4"/><ellipse cx="265.3" cy="400.3" rx="5.5" ry="4.5" fill="#f7c540" stroke="#d99a1e" stroke-width="1.4"/><ellipse cx="263" cy="400.6" rx="5.5" ry="4.5" fill="#f7c540" stroke="#d99a1e" stroke-width="1.4"/><ellipse cx="364.9" cy="488.2" rx="5.5" ry="4.5" fill="#f7c540" stroke="#d99a1e" stroke-width="1.4"/><ellipse cx="360.2" cy="482.5" rx="5.5" ry="4.5" fill="#f7c540" stroke="#d99a1e" stroke-width="1.4"/><ellipse cx="369.3" cy="487.1" rx="5.5" ry="4.5" fill="#f7c540" stroke="#d99a1e" stroke-width="1.4"/><ellipse cx="236" cy="288.5" rx="5.5" ry="4.5" fill="#f7c540" stroke="#d99a1e" stroke-width="1.4"/><ellipse cx="241.1" cy="295.9" rx="5.5" ry="4.5" fill="#f7c540" stroke="#d99a1e" stroke-width="1.4"/><ellipse cx="242" cy="301.8" rx="5.5" ry="4.5" fill="#f7c540" stroke="#d99a1e" stroke-width="1.4"/><ellipse cx="209.1" cy="396.9" rx="5.5" ry="4.5" fill="#f7c540" stroke="#d99a1e" stroke-width="1.4"/><ellipse cx="203.2" cy="389.2" rx="5.5" ry="4.5" fill="#f7c540" stroke="#d99a1e" stroke-width="1.4"/><ellipse cx="199.6" cy="395.6" rx="5.5" ry="4.5" fill="#f7c540" stroke="#d99a1e" stroke-width="1.4"/><ellipse cx="386" cy="348.3" rx="5.5" ry="4.5" fill="#f7c540" stroke="#d99a1e" stroke-width="1.4"/><ellipse cx="383.8" cy="361.4" rx="5.5" ry="4.5" fill="#f7c540" stroke="#d99a1e" stroke-width="1.4"/><ellipse cx="376.4" cy="363.7" rx="5.5" ry="4.5" fill="#f7c540" stroke="#d99a1e" stroke-width="1.4"/><ellipse cx="372.3" cy="401.6" rx="5.5" ry="4.5" fill="#f7c540" stroke="#d99a1e" stroke-width="1.4"/><ellipse cx="376.8" cy="401.8" rx="5.5" ry="4.5" fill="#f7c540" stroke="#d99a1e" stroke-width="1.4"/><ellipse cx="380.5" cy="394.2" rx="5.5" ry="4.5" fill="#f7c540" stroke="#d99a1e" stroke-width="1.4"/><ellipse cx="306.8" cy="319.6" rx="5.5" ry="4.5" fill="#f7c540" stroke="#d99a1e" stroke-width="1.4"/><ellipse cx="312.5" cy="319.4" rx="5.5" ry="4.5" fill="#f7c540" stroke="#d99a1e" stroke-width="1.4"/><ellipse cx="310.9" cy="322" rx="5.5" ry="4.5" fill="#f7c540" stroke="#d99a1e" stroke-width="1.4"/><g transform="translate(183.5 210.7) rotate(229.7)"><path d="M-28 -6 C-18 -12 -8 0 2 -6 C12 -12 22 0 30 -6 L30 6 C22 12 12 0 2 6 C-8 12 -18 0 -28 6Z" fill="#9a3a26"/><path d="M-26 0 C-18 -5 -8 5 2 0 C12 -5 22 5 28 0" stroke="#f0c8a8" stroke-width="3" fill="none"/></g><g transform="translate(320.6 436.4) rotate(66.5)"><path d="M-28 -6 C-18 -12 -8 0 2 -6 C12 -12 22 0 30 -6 L30 6 C22 12 12 0 2 6 C-8 12 -18 0 -28 6Z" fill="#9a3a26"/><path d="M-26 0 C-18 -5 -8 5 2 0 C12 -5 22 5 28 0" stroke="#f0c8a8" stroke-width="3" fill="none"/></g><g transform="translate(405.3 175.9) rotate(350.9)"><path d="M-28 -6 C-18 -12 -8 0 2 -6 C12 -12 22 0 30 -6 L30 6 C22 12 12 0 2 6 C-8 12 -18 0 -28 6Z" fill="#9a3a26"/><path d="M-26 0 C-18 -5 -8 5 2 0 C12 -5 22 5 28 0" stroke="#f0c8a8" stroke-width="3" fill="none"/></g><g transform="translate(422.9 443.3) rotate(1.5)"><path d="M-28 -6 C-18 -12 -8 0 2 -6 C12 -12 22 0 30 -6 L30 6 C22 12 12 0 2 6 C-8 12 -18 0 -28 6Z" fill="#9a3a26"/><path d="M-26 0 C-18 -5 -8 5 2 0 C12 -5 22 5 28 0" stroke="#f0c8a8" stroke-width="3" fill="none"/></g><g transform="translate(287.3 263.1) rotate(308)"><path d="M-28 -6 C-18 -12 -8 0 2 -6 C12 -12 22 0 30 -6 L30 6 C22 12 12 0 2 6 C-8 12 -18 0 -28 6Z" fill="#9a3a26"/><path d="M-26 0 C-18 -5 -8 5 2 0 C12 -5 22 5 28 0" stroke="#f0c8a8" stroke-width="3" fill="none"/></g><g transform="translate(223.5 179) rotate(15.6)"><path d="M-28 -6 C-18 -12 -8 0 2 -6 C12 -12 22 0 30 -6 L30 6 C22 12 12 0 2 6 C-8 12 -18 0 -28 6Z" fill="#9a3a26"/><path d="M-26 0 C-18 -5 -8 5 2 0 C12 -5 22 5 28 0" stroke="#f0c8a8" stroke-width="3" fill="none"/></g><g transform="translate(340.7 270.2) rotate(152.5)"><path d="M-28 -6 C-18 -12 -8 0 2 -6 C12 -12 22 0 30 -6 L30 6 C22 12 12 0 2 6 C-8 12 -18 0 -28 6Z" fill="#9a3a26"/><path d="M-26 0 C-18 -5 -8 5 2 0 C12 -5 22 5 28 0" stroke="#f0c8a8" stroke-width="3" fill="none"/></g><g transform="translate(458.3 405.8) rotate(52.2)"><path d="M-30 0 C-20 -14 -10 14 0 0 C10 -14 20 14 30 0" stroke="#fffaf0" stroke-width="11" stroke-linecap="round" fill="none"/><path d="M-30 -2 C-20 -16 -10 12 0 -2" stroke="#fff" stroke-width="4" stroke-linecap="round" fill="none" opacity=".8"/></g><g transform="translate(317.8 492.4) rotate(313.6)"><path d="M-30 0 C-20 -14 -10 14 0 0 C10 -14 20 14 30 0" stroke="#fffaf0" stroke-width="11" stroke-linecap="round" fill="none"/><path d="M-30 -2 C-20 -16 -10 12 0 -2" stroke="#fff" stroke-width="4" stroke-linecap="round" fill="none" opacity=".8"/></g><g transform="translate(156.6 255.4) rotate(112.9)"><path d="M-30 0 C-20 -14 -10 14 0 0 C10 -14 20 14 30 0" stroke="#fffaf0" stroke-width="11" stroke-linecap="round" fill="none"/><path d="M-30 -2 C-20 -16 -10 12 0 -2" stroke="#fff" stroke-width="4" stroke-linecap="round" fill="none" opacity=".8"/></g><g transform="translate(346.6 155.5) rotate(28.5)"><path d="M-30 0 C-20 -14 -10 14 0 0 C10 -14 20 14 30 0" stroke="#fffaf0" stroke-width="11" stroke-linecap="round" fill="none"/><path d="M-30 -2 C-20 -16 -10 12 0 -2" stroke="#fff" stroke-width="4" stroke-linecap="round" fill="none" opacity=".8"/></g><line x1="562.2" y1="381.9" x2="77.8" y2="258.1" stroke="#7a3f14" stroke-width="3" opacity=".28"/><line x1="447.5" y1="535" x2="192.5" y2="105" stroke="#7a3f14" stroke-width="3" opacity=".28"/><line x1="258.1" y1="562.2" x2="381.9" y2="77.8" stroke="#7a3f14" stroke-width="3" opacity=".28"/><line x1="105" y1="447.5" x2="535" y2="192.5" stroke="#7a3f14" stroke-width="3" opacity=".28"/><ellipse cx="260" cy="230" rx="120" ry="70" fill="#fff" opacity=".07" transform="rotate(-30 260 230)"/>
  
</svg>