<svg xmlns="http://www.w3.org/2000/svg" viewBox="0 0 640 640">
  <defs>
    <radialGradient id="bbg" cx="50%" cy="40%" r="75%">
      <stop offset="0" stop-color="#3a281d"/><stop offset="1" stop-color="#1d1410"/>
    </radialGradient>
    <radialGradient id="bboard" cx="45%" cy="40%" r="60%">
      <stop offset="0" stop-color="#b98252"/><stop offset="1" stop-color="#8a5a33"/>
    </radialGradient>
    <filter id="bshadow" x="-20%" y="-20%" width="140%" height="140%"><feGaussianBlur stdDeviation="14"/></filter>
    <filter id="bsoft"><feGaussianBlur stdDeviation="1.2"/></filter>
  </defs>
  <rect width="640" height="640" fill="url(#bbg)"/>
  <circle cx="320" cy="325" r="300" fill="#000" opacity=".35" filter="url(#bshadow)"/>
  <circle cx="320" cy="320" r="296" fill="url(#bboard)"/>
  <circle cx="320" cy="320" r="280" fill="none" stroke="#6f4424" stroke-width="1" opacity="0.2"/><circle cx="320" cy="320" r="277" fill="none" stroke="#6f4424" stroke-width="1" opacity="0.2"/><circle cx="320" cy="320" r="274" fill="none" stroke="#6f4424" stroke-width="1" opacity="0.2"/><circle cx="320" cy="320" r="271" fill="none" stroke="#6f4424" stroke-width="1" opacity="0.1"/><circle cx="320" cy="320" r="268" fill="none" stroke="#6f4424" stroke-width="1" opacity="0.1"/><circle cx="320" cy="320" r="265" fill="none" stroke="#6f4424" stroke-width="1" opacity="0.2"/><circle cx="320" cy="320" r="262" fill="none" stroke="#6f4424" stroke-width="1" opacity="0.1"/>
  <circle cx="266.6" cy="79.2" r="2.6" fill="#fff" opacity="0.3"/><circle cx="123.4" cy="99.4" r="1.5" fill="#fff" opacity="0.4"/><circle cx="-25.7" cy="364.3" r="0.8" fill="#fff" opacity="0.3"/><circle cx="20.1" cy="335.8" r="2.4" fill="#fff" opacity="0.4"/><circle cx="660.9" cy="344.6" r="2.8" fill="#fff" opacity="0.4"/><circle cx="498.5" cy="571" r="0.8" fill="#fff" opacity="0.5"/><circle cx="97.3" cy="70.9" r="1.5" fill="#fff" opacity="0.4"/><circle cx="495.6" cy="143.6" r="1.9" fill="#fff" opacity="0.5"/><circle cx="131" cy="76.4" r="1.8" fill="#fff" opacity="0.2"/><circle cx="548.9" cy="118.1" r="0.8" fill="#fff" opacity="0.4"/><circle cx="44.8" cy="322.6" r="2" fill="#fff" opacity="0.3"/><circle cx="407.4" cy="646.9" r="2.1" fill="#fff" opacity="0.2"/><circle cx="399.6" cy="67.7" r="2.9" fill="#fff" opacity="0.3"/><circle cx="197.7" cy="568.3" r="1.5" fill="#fff" opacity="0.2"/><circle cx="530.2" cy="486" r="1.8" fill="#fff" opacity="0.4"/><circle cx="72.6" cy="85.1" r="2" fill="#fff" opacity="0.5"/><circle cx="92.5" cy="232.2" r="2.4" fill="#fff" opacity="0.4"/><circle cx="191.6" cy="20.9" r="1.9" fill="#fff" opacity="0.3"/><circle cx="227.6" cy="604.2" r="2" fill="#fff" opacity="0.4"/><circle cx="114.6" cy="518.8" r="1.1" fill="#fff" opacity="0.3"/><circle cx="282.6" cy="64.6" r="2.8" fill="#fff" opacity="0.3"/><circle cx="296.8" cy="38.9" r="1.3" fill="#fff" opacity="0.3"/><circle cx="23" cy="235.8" r="2.1" fill="#fff" opacity="0.3"/><circle cx="218.4" cy="41.1" r="2.6" fill="#fff" opacity="0.4"/><circle cx="154.1" cy="135.1" r="0.9" fill="#fff" opacity="0.3"/><circle cx="52" cy="130.9" r="1.3" fill="#fff" opacity="0.2"/><circle cx="299.7" cy="66.1" r="2.2" fill="#fff" opacity="0.2"/><circle cx="14.6" cy="221.5" r="2.7" fill="#fff" opacity="0.5"/><circle cx="567.1" cy="239.7" r="1.1" fill="#fff" opacity="0.4"/><circle cx="62.8" cy="222.7" r="2.7" fill="#fff" opacity="0.3"/><circle cx="601.8" cy="367.1" r="2" fill="#fff" opacity="0.4"/><circle cx="17.8" cy="325.5" r="2.3" fill="#fff" opacity="0.3"/><circle cx="39.1" cy="319.3" r="1.4" fill="#fff" opacity="0.3"/><circle cx="547.6" cy="124.9" r="1.5" fill="#fff" opacity="0.4"/><circle cx="137.6" cy="155.6" r="1.6" fill="#fff" opacity="0.2"/><circle cx="76.6" cy="353.7" r="1.7" fill="#fff" opacity="0.4"/><circle cx="593" cy="459.2" r="2.1" fill="#fff" opacity="0.4"/><circle cx="126" cy="47.2" r="0.9" fill="#fff" opacity="0.3"/><circle cx="66.9" cy="167.3" r="1.5" fill="#fff" opacity="0.2"/><circle cx="134.1" cy="111.3" r="2.5" fill="#fff" opacity="0.5"/><circle cx="333.5" cy="607.9" r="2.8" fill="#fff" opacity="0.3"/><circle cx="78.6" cy="286.3" r="2.7" fill="#fff" opacity="0.4"/><circle cx="221.1" cy="30.2" r="1.9" fill="#fff" opacity="0.4"/><circle cx="517.5" cy="504.5" r="2.6" fill="#fff" opacity="0.4"/><circle cx="482.6" cy="584.5" r="2.7" fill="#fff" opacity="0.3"/><circle cx="38.4" cy="143.8" r="1.8" fill="#fff" opacity="0.3"/><circle cx="383.3" cy="567.1" r="2.7" fill="#fff" opacity="0.5"/><circle cx="606.5" cy="147.6" r="3" fill="#fff" opacity="0.2"/><circle cx="67.4" cy="511.1" r="1.1" fill="#fff" opacity="0.2"/><circle cx="453.6" cy="578.2" r="2.2" fill="#fff" opacity="0.4"/><circle cx="217.4" cy="47.6" r="2.6" fill="#fff" opacity="0.3"/><circle cx="93.3" cy="66.3" r="1.9" fill="#fff" opacity="0.2"/><circle cx="275.5" cy="39" r="0.8" fill="#fff" opacity="0.4"/><circle cx="154.1" cy="112.2" r="2.3" fill="#fff" opacity="0.2"/><circle cx="500.1" cy="21.8" r="1.4" fill="#fff" opacity="0.3"/><circle cx="143" cy="572.4" r="2.3" fill="#fff" opacity="0.3"/><circle cx="596.4" cy="236.6" r="1.9" fill="#fff" opacity="0.3"/><circle cx="371" cy="565.9" r="1.8" fill="#fff" opacity="0.2"/><circle cx="285.1" cy="640.4" r="1.2" fill="#fff" opacity="0.4"/><circle cx="134.2" cy="485.8" r="1.2" fill="#fff" opacity="0.5"/>
  
  <defs>
    <radialGradient id="p79crust" cx="50%" cy="45%" r="55%">
      <stop offset=".78" stop-color="#e7b36f"/><stop offset=".9" stop-color="#d49549"/><stop offset="1" stop-color="#a86a2c"/>
    </radialGradient>
    <radialGradient id="p79cheese" cx="45%" cy="40%" r="60%">
      <stop offset="0" stop-color="#fbe3a0"/><stop offset=".7" stop-color="#f3cb6c"/><stop offset="1" stop-color="#e7ad4a"/>
    </radialGradient>
    <radialGradient id="p79choc" cx="45%" cy="40%" r="60%">
      <stop offset="0" stop-color="#6d4331"/><stop offset="1" stop-color="#3e2418"/>
    </radialGradient>
    <radialGradient id="p79sauce" cx="45%" cy="40%" r="60%">
      <stop offset="0" stop-color="#d9442f"/><stop offset="1" stop-color="#a92a1b"/>
    </radialGradient>
  </defs>
  <ellipse cx="330" cy="345" rx="262" ry="258" fill="#000" opacity=".45" filter="url(#bshadow)"/>
  <circle cx="320" cy="320" r="252" fill="url(#p79crust)"/><ellipse cx="295.6" cy="552.3" rx="10.3" ry="5" fill="#5a2e12" opacity="0.3" transform="rotate(96 295.6 552.3)"/><ellipse cx="235.8" cy="103.5" rx="3.1" ry="5.5" fill="#5a2e12" opacity="0.3" transform="rotate(248.7 235.8 103.5)"/><ellipse cx="165.9" cy="131.1" rx="9.3" ry="2.4" fill="#5a2e12" opacity="0.3" transform="rotate(230.8 165.9 131.1)"/><ellipse cx="194.6" cy="528.1" rx="7.1" ry="6.9" fill="#5a2e12" opacity="0.6" transform="rotate(121.1 194.6 528.1)"/><ellipse cx="481.2" cy="472.8" rx="5.8" ry="6.6" fill="#5a2e12" opacity="0.4" transform="rotate(43.5 481.2 472.8)"/><ellipse cx="433" cy="521" rx="4.7" ry="4.2" fill="#5a2e12" opacity="0.7" transform="rotate(60.7 433 521)"/><ellipse cx="339.8" cy="91.7" rx="6.8" ry="3.4" fill="#5a2e12" opacity="0.4" transform="rotate(275 339.8 91.7)"/><ellipse cx="93" cy="287.7" rx="3.9" ry="6.8" fill="#5a2e12" opacity="0.3" transform="rotate(188.1 93 287.7)"/><ellipse cx="513.2" cy="447.5" rx="9.4" ry="5.9" fill="#5a2e12" opacity="0.6" transform="rotate(33.4 513.2 447.5)"/><ellipse cx="514.3" cy="450.3" rx="3.4" ry="6.1" fill="#5a2e12" opacity="0.5" transform="rotate(33.8 514.3 450.3)"/><ellipse cx="210" cy="515.4" rx="10.1" ry="3" fill="#5a2e12" opacity="0.5" transform="rotate(119.4 210 515.4)"/><ellipse cx="517.7" cy="454.8" rx="3.6" ry="2.9" fill="#5a2e12" opacity="0.5" transform="rotate(34.3 517.7 454.8)"/><ellipse cx="280.2" cy="564.4" rx="3.9" ry="5.6" fill="#5a2e12" opacity="0.3" transform="rotate(99.3 280.2 564.4)"/><ellipse cx="279.9" cy="556.7" rx="10.3" ry="3.6" fill="#5a2e12" opacity="0.3" transform="rotate(99.6 279.9 556.7)"/><ellipse cx="525.3" cy="437.9" rx="4.2" ry="6.3" fill="#5a2e12" opacity="0.4" transform="rotate(29.9 525.3 437.9)"/><ellipse cx="170.3" cy="132" rx="9.8" ry="4.6" fill="#5a2e12" opacity="0.4" transform="rotate(231.5 170.3 132)"/><ellipse cx="532.1" cy="434.9" rx="5.8" ry="2.6" fill="#5a2e12" opacity="0.6" transform="rotate(28.4 532.1 434.9)"/><ellipse cx="546.7" cy="288.6" rx="9.4" ry="2.5" fill="#5a2e12" opacity="0.7" transform="rotate(352.1 546.7 288.6)"/><ellipse cx="179.9" cy="135.3" rx="4.1" ry="4.4" fill="#5a2e12" opacity="0.5" transform="rotate(232.8 179.9 135.3)"/><ellipse cx="455.7" cy="119.4" rx="7" ry="4.5" fill="#5a2e12" opacity="0.4" transform="rotate(304.1 455.7 119.4)"/><ellipse cx="365.9" cy="553.9" rx="3.3" ry="4.7" fill="#5a2e12" opacity="0.4" transform="rotate(78.9 365.9 553.9)"/><ellipse cx="518.4" cy="444.6" rx="5.7" ry="5.3" fill="#5a2e12" opacity="0.6" transform="rotate(32.1 518.4 444.6)"/><ellipse cx="166.5" cy="148.5" rx="6" ry="3.4" fill="#5a2e12" opacity="0.7" transform="rotate(228.2 166.5 148.5)"/><ellipse cx="477.9" cy="505.1" rx="5.4" ry="3.6" fill="#5a2e12" opacity="0.3" transform="rotate(49.5 477.9 505.1)"/><ellipse cx="94.8" cy="395.9" rx="5.3" ry="6.6" fill="#5a2e12" opacity="0.4" transform="rotate(161.4 94.8 395.9)"/><ellipse cx="545.1" cy="406.8" rx="10.1" ry="2" fill="#5a2e12" opacity="0.4" transform="rotate(21.1 545.1 406.8)"/><ellipse cx="106.7" cy="219.3" rx="4.5" ry="2.7" fill="#5a2e12" opacity="0.4" transform="rotate(205.3 106.7 219.3)"/><ellipse cx="120.3" cy="207.7" rx="6.4" ry="4.8" fill="#5a2e12" opacity="0.4" transform="rotate(209.3 120.3 207.7)"/><ellipse cx="99.7" cy="265.8" rx="3.2" ry="6.4" fill="#5a2e12" opacity="0.5" transform="rotate(193.8 99.7 265.8)"/><ellipse cx="93.4" cy="285.4" rx="7.3" ry="6.8" fill="#5a2e12" opacity="0.6" transform="rotate(188.7 93.4 285.4)"/><ellipse cx="232.2" cy="539" rx="3.3" ry="4.3" fill="#5a2e12" opacity="0.3" transform="rotate(111.8 232.2 539)"/><ellipse cx="82.3" cy="324.2" rx="7.4" ry="6.9" fill="#5a2e12" opacity="0.6" transform="rotate(179 82.3 324.2)"/><ellipse cx="265.3" cy="559.5" rx="8.6" ry="2" fill="#5a2e12" opacity="0.6" transform="rotate(102.9 265.3 559.5)"/><ellipse cx="455.2" cy="141.2" rx="6.7" ry="4.4" fill="#5a2e12" opacity="0.3" transform="rotate(307.1 455.2 141.2)"/><ellipse cx="426.7" cy="111.6" rx="9.9" ry="6.6" fill="#5a2e12" opacity="0.6" transform="rotate(297.1 426.7 111.6)"/><ellipse cx="260" cy="102.1" rx="5.2" ry="3.6" fill="#5a2e12" opacity="0.6" transform="rotate(254.6 260 102.1)"/><ellipse cx="93.7" cy="244.4" rx="3.6" ry="5.1" fill="#5a2e12" opacity="0.5" transform="rotate(198.5 93.7 244.4)"/><ellipse cx="537" cy="377.2" rx="3.8" ry="6.1" fill="#5a2e12" opacity="0.7" transform="rotate(14.8 537 377.2)"/><ellipse cx="82.4" cy="322.4" rx="3.6" ry="3" fill="#5a2e12" opacity="0.6" transform="rotate(179.4 82.4 322.4)"/><ellipse cx="97.4" cy="380.2" rx="7.5" ry="3.6" fill="#5a2e12" opacity="0.3" transform="rotate(164.9 97.4 380.2)"/><ellipse cx="134.9" cy="179.7" rx="3" ry="3.6" fill="#5a2e12" opacity="0.7" transform="rotate(217.2 134.9 179.7)"/><ellipse cx="212" cy="105.9" rx="4.6" ry="2.1" fill="#5a2e12" opacity="0.6" transform="rotate(243.2 212 105.9)"/><circle cx="320" cy="320" r="252" fill="none" stroke="#f3d29c" stroke-width="3" opacity=".35"/><circle cx="320" cy="320" r="216" fill="url(#p79sauce)"/><circle cx="320" cy="320" r="200" fill="url(#p79cheese)"/><circle cx="229.8" cy="483.7" r="15" fill="#f1c461"/><circle cx="344.7" cy="117.1" r="18.9" fill="#f1c461"/><circle cx="131.6" cy="393.8" r="17.2" fill="#f1c461"/><circle cx="398.3" cy="495.2" r="17.9" fill="#f1c461"/><circle cx="184.5" cy="467.8" r="24.7" fill="#f1c461"/><circle cx="498.8" cy="216.2" r="21.6" fill="#f1c461"/><circle cx="522.6" cy="310.1" r="23.6" fill="#f1c461"/><circle cx="422.8" cy="499.5" r="17.2" fill="#f1c461"/><circle cx="147.1" cy="432.7" r="22.8" fill="#f1c461"/><circle cx="160.2" cy="438.1" r="21.6" fill="#f1c461"/><circle cx="278.3" cy="128.4" r="21.8" fill="#f1c461"/><circle cx="506.4" cy="361.1" r="23.7" fill="#f1c461"/><circle cx="466.1" cy="173" r="16.3" fill="#f1c461"/><circle cx="214.7" cy="154" r="24.5" fill="#f1c461"/><circle cx="524.1" cy="350.7" r="20.4" fill="#f1c461"/><circle cx="321.7" cy="522.8" r="15.5" fill="#f1c461"/><circle cx="513.9" cy="242.4" r="24" fill="#f1c461"/><circle cx="158.5" cy="413.6" r="26.3" fill="#f1c461"/><circle cx="502.2" cy="238.7" r="27" fill="#f1c461"/><circle cx="127.5" cy="258.1" r="16.1" fill="#f1c461"/><circle cx="466.8" cy="180.6" r="25.6" fill="#f1c461"/><circle cx="147.8" cy="408.6" r="14.5" fill="#f1c461"/><circle cx="501.2" cy="236.8" r="16.7" fill="#f1c461"/><circle cx="265.8" cy="118.9" r="15.1" fill="#f1c461"/><circle cx="349.8" cy="510.1" r="25.6" fill="#f1c461"/><circle cx="508.5" cy="376.2" r="22.1" fill="#f1c461"/><ellipse cx="334.6" cy="400.7" rx="11" ry="10.6" fill="#fff1c4" opacity="0.7"/><ellipse cx="194.6" cy="416.5" rx="12" ry="16.7" fill="#fff1c4" opacity="0.5"/><ellipse cx="442.3" cy="338.6" rx="17.1" ry="7.6" fill="#fff1c4" opacity="0.4"/><ellipse cx="189.1" cy="443.4" rx="8.5" ry="7.5" fill="#fff1c4" opacity="0.6"/><ellipse cx="308.1" cy="407.1" rx="25.2" ry="12.3" fill="#fff1c4" opacity="0.5"/><ellipse cx="453.7" cy="291.6" rx="25" ry="8" fill="#fff1c4" opacity="0.5"/><ellipse cx="436.2" cy="266" rx="19.1" ry="17.6" fill="#fff1c4" opacity="0.6"/><ellipse cx="182.1" cy="281.4" rx="8.5" ry="7.4" fill="#fff1c4" opacity="0.4"/><ellipse cx="303.3" cy="363.2" rx="23" ry="6.1" fill="#fff1c4" opacity="0.7"/><ellipse cx="288.8" cy="232" rx="9.5" ry="10.7" fill="#fff1c4" opacity="0.7"/><ellipse cx="306.4" cy="329.6" rx="19.3" ry="6.7" fill="#fff1c4" opacity="0.5"/><ellipse cx="264.5" cy="420.1" rx="12.9" ry="17.1" fill="#fff1c4" opacity="0.7"/><ellipse cx="356.9" cy="451.1" rx="12.2" ry="12" fill="#fff1c4" opacity="0.7"/><ellipse cx="198.9" cy="180.7" rx="11.3" ry="15.7" fill="#fff1c4" opacity="0.5"/><ellipse cx="348" cy="428" rx="11.9" ry="12.2" fill="#fff1c4" opacity="0.6"/><ellipse cx="287" cy="367.7" rx="14.5" ry="11.9" fill="#fff1c4" opacity="0.4"/><ellipse cx="335" cy="188.3" rx="23.1" ry="17.2" fill="#fff1c4" opacity="0.5"/><ellipse cx="364.7" cy="438.6" rx="15.6" ry="12.7" fill="#fff1c4" opacity="0.6"/><ellipse cx="205.2" cy="221.7" rx="24.4" ry="9.2" fill="#fff1c4" opacity="0.5"/><ellipse cx="429.8" cy="395.7" rx="24" ry="8.2" fill="#fff1c4" opacity="0.7"/><ellipse cx="213.2" cy="470.7" rx="11.7" ry="8.1" fill="#fff1c4" opacity="0.4"/><ellipse cx="363.6" cy="380.1" rx="28" ry="8.6" fill="#fff1c4" opacity="0.6"/><ellipse cx="261.6" cy="239.7" rx="16.1" ry="6.4" fill="#fff1c4" opacity="0.7"/><ellipse cx="358.1" cy="233.5" rx="14.8" ry="9.3" fill="#fff1c4" opacity="0.4"/><ellipse cx="349.4" cy="273.1" rx="14.4" ry="11.8" fill="#fff1c4" opacity="0.6"/><ellipse cx="171" cy="241" rx="15.8" ry="10.6" fill="#fff1c4" opacity="0.5"/><ellipse cx="449.3" cy="213.4" rx="12.9" ry="8.2" fill="#fff1c4" opacity="0.6"/><ellipse cx="208.9" cy="205.2" rx="15.2" ry="15.8" fill="#fff1c4" opacity="0.4"/><ellipse cx="197.1" cy="289.6" rx="15.9" ry="12.9" fill="#fff1c4" opacity="0.6"/><ellipse cx="210" cy="274.4" rx="11.5" ry="9.3" fill="#fff1c4" opacity="0.7"/><ellipse cx="283" cy="455" rx="20.2" ry="17.1" fill="#fff1c4" opacity="0.5"/><ellipse cx="177.4" cy="230.7" rx="18.8" ry="17.4" fill="#fff1c4" opacity="0.5"/><ellipse cx="224.7" cy="166.5" rx="19.8" ry="9.7" fill="#fff1c4" opacity="0.7"/><ellipse cx="415.1" cy="306" rx="25.4" ry="13.5" fill="#fff1c4" opacity="0.5"/><ellipse cx="367.1" cy="339.5" rx="27" ry="13.3" fill="#fff1c4" opacity="0.4"/><ellipse cx="150.1" cy="345.6" rx="15.8" ry="8.8" fill="#fff1c4" opacity="0.6"/><ellipse cx="151.6" cy="305.5" rx="13.4" ry="12" fill="#fff1c4" opacity="0.6"/><ellipse cx="298" cy="168.7" rx="18.8" ry="10.8" fill="#fff1c4" opacity="0.5"/><ellipse cx="238.5" cy="213.6" rx="15.2" ry="17.8" fill="#fff1c4" opacity="0.7"/><ellipse cx="238.9" cy="409" rx="26" ry="10.9" fill="#fff1c4" opacity="0.5"/><circle cx="199.1" cy="241.8" r="7" fill="#c9802c" opacity="0.4"/><circle cx="405.8" cy="341.5" r="5" fill="#c9802c" opacity="0.5"/><circle cx="381.3" cy="393.3" r="3.5" fill="#c9802c" opacity="0.5"/><circle cx="273.3" cy="486.4" r="3.9" fill="#c9802c" opacity="0.5"/><circle cx="140.4" cy="361.6" r="5.8" fill="#c9802c" opacity="0.5"/><circle cx="418.7" cy="418" r="4.3" fill="#c9802c" opacity="0.5"/><circle cx="147.7" cy="376.5" r="4.8" fill="#c9802c" opacity="0.7"/><circle cx="350.1" cy="241.2" r="5.3" fill="#c9802c" opacity="0.6"/><circle cx="453.6" cy="218.3" r="5.9" fill="#c9802c" opacity="0.4"/><circle cx="427.2" cy="386.4" r="4.3" fill="#c9802c" opacity="0.4"/><circle cx="358.4" cy="246.6" r="4.5" fill="#c9802c" opacity="0.6"/><circle cx="340.6" cy="344.7" r="7.2" fill="#c9802c" opacity="0.6"/><circle cx="201.8" cy="229" r="4.4" fill="#c9802c" opacity="0.7"/><circle cx="256" cy="417.9" r="4.9" fill="#c9802c" opacity="0.5"/><circle cx="451.4" cy="174.4" r="2.5" fill="#c9802c" opacity="0.5"/><circle cx="431.4" cy="201.5" r="5.2" fill="#c9802c" opacity="0.7"/><circle cx="297.5" cy="512.3" r="5.6" fill="#c9802c" opacity="0.6"/><circle cx="443.8" cy="400.3" r="7" fill="#c9802c" opacity="0.7"/><circle cx="483.8" cy="360.2" r="6.7" fill="#c9802c" opacity="0.5"/><circle cx="349.7" cy="173.5" r="6" fill="#c9802c" opacity="0.5"/><circle cx="204.7" cy="482.8" r="5.3" fill="#c9802c" opacity="0.4"/><circle cx="413.3" cy="445.9" r="2.6" fill="#c9802c" opacity="0.4"/><circle cx="203.6" cy="324.2" r="5.5" fill="#c9802c" opacity="0.7"/><circle cx="230.6" cy="158.3" r="5.2" fill="#c9802c" opacity="0.5"/><circle cx="358.5" cy="289.3" r="4.1" fill="#c9802c" opacity="0.7"/><circle cx="317.5" cy="254.4" r="6.2" fill="#c9802c" opacity="0.7"/><circle cx="447.8" cy="207.1" r="4.9" fill="#c9802c" opacity="0.5"/><circle cx="428.9" cy="477.1" r="7" fill="#c9802c" opacity="0.6"/><circle cx="263.7" cy="391.3" r="3.9" fill="#c9802c" opacity="0.7"/><circle cx="287.6" cy="371" r="3.3" fill="#c9802c" opacity="0.6"/><circle cx="371.1" cy="412.5" r="7.2" fill="#c9802c" opacity="0.5"/><circle cx="131.3" cy="330.2" r="2.3" fill="#c9802c" opacity="0.5"/><circle cx="169.3" cy="418.8" r="3" fill="#c9802c" opacity="0.7"/><circle cx="163.1" cy="378.5" r="5.8" fill="#c9802c" opacity="0.7"/><circle cx="205.9" cy="373.3" r="27" fill="#7d1d12" opacity=".55"/><circle cx="205.9" cy="373.3" r="25" fill="#b8321f"/><circle cx="200.9" cy="367.05" r="13.750000000000002" fill="#c9442c" opacity=".7"/><circle cx="217.3" cy="370.1" r="3.5" fill="#e98b6c" opacity=".8"/><circle cx="193" cy="380.9" r="1.6" fill="#e98b6c" opacity=".8"/><circle cx="205.1" cy="374.5" r="1.6" fill="#e98b6c" opacity=".8"/><circle cx="218.1" cy="368.5" r="3.3" fill="#e98b6c" opacity=".8"/><circle cx="211.8" cy="385.3" r="1.9" fill="#e98b6c" opacity=".8"/><circle cx="299.9" cy="229.4" r="27" fill="#7d1d12" opacity=".55"/><circle cx="299.9" cy="229.4" r="25" fill="#b8321f"/><circle cx="294.9" cy="223.15" r="13.750000000000002" fill="#c9442c" opacity=".7"/><circle cx="310.4" cy="240" r="3.4" fill="#e98b6c" opacity=".8"/><circle cx="306.7" cy="225.1" r="2.2" fill="#e98b6c" opacity=".8"/><circle cx="297.2" cy="217.4" r="3" fill="#e98b6c" opacity=".8"/><circle cx="310.5" cy="238.1" r="2.5" fill="#e98b6c" opacity=".8"/><circle cx="310.4" cy="228.2" r="3.2" fill="#e98b6c" opacity=".8"/><circle cx="338" cy="180.6" r="27" fill="#7d1d12" opacity=".55"/><circle cx="338" cy="180.6" r="25" fill="#b8321f"/><circle cx="333" cy="174.35" r="13.750000000000002" fill="#c9442c" opacity=".7"/><circle cx="336.7" cy="191.8" r="1.6" fill="#e98b6c" opacity=".8"/><circle cx="323.9" cy="190.6" r="3" fill="#e98b6c" opacity=".8"/><circle cx="352.8" cy="189.6" r="3.5" fill="#e98b6c" opacity=".8"/><circle cx="353" cy="168" r="2.4" fill="#e98b6c" opacity=".8"/><circle cx="330.9" cy="181.8" r="3.3" fill="#e98b6c" opacity=".8"/><circle cx="269.7" cy="332.2" r="27" fill="#7d1d12" opacity=".55"/><circle cx="269.7" cy="332.2" r="25" fill="#b8321f"/><circle cx="264.7" cy="325.95" r="13.750000000000002" fill="#c9442c" opacity=".7"/><circle cx="259.4" cy="323.9" r="1.7" fill="#e98b6c" opacity=".8"/><circle cx="279.6" cy="347.3" r="3.2" fill="#e98b6c" opacity=".8"/><circle cx="279.5" cy="319.3" r="3.2" fill="#e98b6c" opacity=".8"/><circle cx="261.5" cy="335.6" r="3.5" fill="#e98b6c" opacity=".8"/><circle cx="266.8" cy="321.5" r="1.8" fill="#e98b6c" opacity=".8"/><circle cx="431.3" cy="284.5" r="27" fill="#7d1d12" opacity=".55"/><circle cx="431.3" cy="284.5" r="25" fill="#b8321f"/><circle cx="426.3" cy="278.25" r="13.750000000000002" fill="#c9442c" opacity=".7"/><circle cx="443.6" cy="288.5" r="2.1" fill="#e98b6c" opacity=".8"/><circle cx="419.9" cy="294.3" r="1.7" fill="#e98b6c" opacity=".8"/><circle cx="419" cy="285.7" r="1.8" fill="#e98b6c" opacity=".8"/><circle cx="434.3" cy="281.2" r="1.6" fill="#e98b6c" opacity=".8"/><circle cx="419.7" cy="278.7" r="3.1" fill="#e98b6c" opacity=".8"/><circle cx="454" cy="228.2" r="27" fill="#7d1d12" opacity=".55"/><circle cx="454" cy="228.2" r="25" fill="#b8321f"/><circle cx="449" cy="221.95" r="13.750000000000002" fill="#c9442c" opacity=".7"/><circle cx="450.3" cy="239.4" r="2.9" fill="#e98b6c" opacity=".8"/><circle cx="457.4" cy="222.3" r="2.5" fill="#e98b6c" opacity=".8"/><circle cx="443.9" cy="230.1" r="3.3" fill="#e98b6c" opacity=".8"/><circle cx="459.5" cy="213.2" r="1.7" fill="#e98b6c" opacity=".8"/><circle cx="443.3" cy="217.2" r="2" fill="#e98b6c" opacity=".8"/><circle cx="325.3" cy="312.5" r="27" fill="#7d1d12" opacity=".55"/><circle cx="325.3" cy="312.5" r="25" fill="#b8321f"/><circle cx="320.3" cy="306.25" r="13.750000000000002" fill="#c9442c" opacity=".7"/><circle cx="334.2" cy="307.7" r="1.7" fill="#e98b6c" opacity=".8"/><circle cx="327.9" cy="303.4" r="1.8" fill="#e98b6c" opacity=".8"/><circle cx="324.9" cy="309.5" r="2.4" fill="#e98b6c" opacity=".8"/><circle cx="324.4" cy="321.5" r="2.7" fill="#e98b6c" opacity=".8"/><circle cx="310.2" cy="324.9" r="3.2" fill="#e98b6c" opacity=".8"/><circle cx="307.4" cy="368.2" r="27" fill="#7d1d12" opacity=".55"/><circle cx="307.4" cy="368.2" r="25" fill="#b8321f"/><circle cx="302.4" cy="361.95" r="13.750000000000002" fill="#c9442c" opacity=".7"/><circle cx="313.9" cy="368.6" r="3.3" fill="#e98b6c" opacity=".8"/><circle cx="295.5" cy="362.9" r="1.6" fill="#e98b6c" opacity=".8"/><circle cx="295" cy="372.6" r="2.1" fill="#e98b6c" opacity=".8"/><circle cx="298.6" cy="377.7" r="2.3" fill="#e98b6c" opacity=".8"/><circle cx="320.3" cy="370.4" r="3" fill="#e98b6c" opacity=".8"/><circle cx="450.2" cy="407.1" r="27" fill="#7d1d12" opacity=".55"/><circle cx="450.2" cy="407.1" r="25" fill="#b8321f"/><circle cx="445.2" cy="400.85" r="13.750000000000002" fill="#c9442c" opacity=".7"/><circle cx="453.1" cy="409.8" r="1.6" fill="#e98b6c" opacity=".8"/><circle cx="442.4" cy="420.5" r="3.2" fill="#e98b6c" opacity=".8"/><circle cx="458.1" cy="422.4" r="2.6" fill="#e98b6c" opacity=".8"/><circle cx="466.3" cy="405.3" r="1.8" fill="#e98b6c" opacity=".8"/><circle cx="455" cy="393.7" r="2.9" fill="#e98b6c" opacity=".8"/><circle cx="268" cy="183.4" r="27" fill="#7d1d12" opacity=".55"/><circle cx="268" cy="183.4" r="25" fill="#b8321f"/><circle cx="263" cy="177.15" r="13.750000000000002" fill="#c9442c" opacity=".7"/><circle cx="265.6" cy="185.1" r="2.3" fill="#e98b6c" opacity=".8"/><circle cx="276.2" cy="188.3" r="1.9" fill="#e98b6c" opacity=".8"/><circle cx="280.3" cy="178.9" r="2.5" fill="#e98b6c" opacity=".8"/><circle cx="281.5" cy="169.6" r="2.3" fill="#e98b6c" opacity=".8"/><circle cx="255.1" cy="168.4" r="2.9" fill="#e98b6c" opacity=".8"/><circle cx="388.5" cy="202.4" r="27" fill="#7d1d12" opacity=".55"/><circle cx="388.5" cy="202.4" r="25" fill="#b8321f"/><circle cx="383.5" cy="196.15" r="13.750000000000002" fill="#c9442c" opacity=".7"/><circle cx="401.3" cy="200.5" r="1.7" fill="#e98b6c" opacity=".8"/><circle cx="377.7" cy="197.5" r="3" fill="#e98b6c" opacity=".8"/><circle cx="402.3" cy="194.6" r="2.2" fill="#e98b6c" opacity=".8"/><circle cx="404.6" cy="205.6" r="3.2" fill="#e98b6c" opacity=".8"/><circle cx="374.6" cy="215.2" r="3.3" fill="#e98b6c" opacity=".8"/><circle cx="204.7" cy="256.5" r="27" fill="#7d1d12" opacity=".55"/><circle cx="204.7" cy="256.5" r="25" fill="#b8321f"/><circle cx="199.7" cy="250.25" r="13.750000000000002" fill="#c9442c" opacity=".7"/><circle cx="212.7" cy="263.4" r="2.6" fill="#e98b6c" opacity=".8"/><circle cx="191.8" cy="261.9" r="2.6" fill="#e98b6c" opacity=".8"/><circle cx="201.5" cy="251.9" r="3.1" fill="#e98b6c" opacity=".8"/><circle cx="194.3" cy="267.9" r="1.9" fill="#e98b6c" opacity=".8"/><circle cx="194.9" cy="268" r="1.9" fill="#e98b6c" opacity=".8"/><circle cx="376.3" cy="276" r="27" fill="#7d1d12" opacity=".55"/><circle cx="376.3" cy="276" r="25" fill="#b8321f"/><circle cx="371.3" cy="269.75" r="13.750000000000002" fill="#c9442c" opacity=".7"/><circle cx="379.7" cy="289.1" r="3.2" fill="#e98b6c" opacity=".8"/><circle cx="372" cy="264.4" r="2.1" fill="#e98b6c" opacity=".8"/><circle cx="388.2" cy="290.6" r="2.6" fill="#e98b6c" opacity=".8"/><circle cx="375.9" cy="272.4" r="1.7" fill="#e98b6c" opacity=".8"/><circle cx="366.1" cy="288.8" r="2.4" fill="#e98b6c" opacity=".8"/><circle cx="261.3" cy="394.2" r="27" fill="#7d1d12" opacity=".55"/><circle cx="261.3" cy="394.2" r="25" fill="#b8321f"/><circle cx="256.3" cy="387.95" r="13.750000000000002" fill="#c9442c" opacity=".7"/><circle cx="263.1" cy="409.3" r="2.4" fill="#e98b6c" opacity=".8"/><circle cx="268.8" cy="410" r="3.4" fill="#e98b6c" opacity=".8"/><circle cx="256.8" cy="396.9" r="1.5" fill="#e98b6c" opacity=".8"/><circle cx="266.8" cy="391.1" r="1.8" fill="#e98b6c" opacity=".8"/><circle cx="276.4" cy="389.5" r="2.4" fill="#e98b6c" opacity=".8"/><circle cx="374.2" cy="354.9" r="27" fill="#7d1d12" opacity=".55"/><circle cx="374.2" cy="354.9" r="25" fill="#b8321f"/><circle cx="369.2" cy="348.65" r="13.750000000000002" fill="#c9442c" opacity=".7"/><circle cx="375.4" cy="339.6" r="2.4" fill="#e98b6c" opacity=".8"/><circle cx="368.4" cy="357.1" r="2.4" fill="#e98b6c" opacity=".8"/><circle cx="379.8" cy="366.5" r="2.3" fill="#e98b6c" opacity=".8"/><circle cx="390" cy="342.6" r="3.3" fill="#e98b6c" opacity=".8"/><circle cx="367.5" cy="354.5" r="1.6" fill="#e98b6c" opacity=".8"/><circle cx="288.6" cy="494.6" r="27" fill="#7d1d12" opacity=".55"/><circle cx="288.6" cy="494.6" r="25" fill="#b8321f"/><circle cx="283.6" cy="488.35" r="13.750000000000002" fill="#c9442c" opacity=".7"/><circle cx="279.2" cy="505.1" r="2.9" fill="#e98b6c" opacity=".8"/><circle cx="293.5" cy="488.4" r="3.4" fill="#e98b6c" opacity=".8"/><circle cx="285.1" cy="483.1" r="3.1" fill="#e98b6c" opacity=".8"/><circle cx="283.3" cy="495.6" r="1.6" fill="#e98b6c" opacity=".8"/><circle cx="294.5" cy="508.1" r="1.5" fill="#e98b6c" opacity=".8"/><circle cx="397.8" cy="434" r="27" fill="#7d1d12" opacity=".55"/><circle cx="397.8" cy="434" r="25" fill="#b8321f"/><circle cx="392.8" cy="427.75" r="13.750000000000002" fill="#c9442c" opacity=".7"/><circle cx="395" cy="435.8" r="2.7" fill="#e98b6c" opacity=".8"/><circle cx="389.1" cy="429.1" r="3.5" fill="#e98b6c" opacity=".8"/><circle cx="406.1" cy="435.1" r="2" fill="#e98b6c" opacity=".8"/><circle cx="385.2" cy="433.9" r="1.9" fill="#e98b6c" opacity=".8"/><circle cx="403.3" cy="440.8" r="2.2" fill="#e98b6c" opacity=".8"/><line x1="562.2" y1="381.9" x2="77.8" y2="258.1" stroke="#7a3f14" stroke-width="3" opacity=".28"/><line x1="447.5" y1="535" x2="192.5" y2="105" stroke="#7a3f14" stroke-width="3" opacity=".28"/><line x1="258.1" y1="562.2" x2="381.9" y2="77.8" stroke="#7a3f14" stroke-width="3" opacity=".28"/><line x1="105" y1="447.5" x2="535" y2="192.5" stroke="#7a3f14" stroke-width="3" opacity=".28"/><ellipse cx="260" cy="230" rx="120" ry="70" fill="#fff" opacity=".07" transform="rotate(-30 260 230)"/>
  
</svg>